<?xml version="1.0" encoding="UTF-8" standalone="no"?>
<!-- Created with Inkscape (http://www.inkscape.org/) -->

<svg
   width="373.66226mm"
   height="52.131012mm"
   viewBox="0 0 373.66225 52.131009"
   version="1.1"
   id="svg1"
   inkscape:version="1.3.2 (091e20e, 2023-11-25, custom)"
   sodipodi:docname="open_rase_white.svg"
   xmlns:inkscape="http://www.inkscape.org/namespaces/inkscape"
   xmlns:sodipodi="http://sodipodi.sourceforge.net/DTD/sodipodi-0.dtd"
   xmlns="http://www.w3.org/2000/svg"
   xmlns:svg="http://www.w3.org/2000/svg">
  <sodipodi:namedview
     id="namedview1"
     pagecolor="#ffffff"
     bordercolor="#000000"
     borderopacity="0.25"
     inkscape:showpageshadow="2"
     inkscape:pageopacity="0.0"
     inkscape:pagecheckerboard="0"
     inkscape:deskcolor="#d1d1d1"
     inkscape:document-units="mm"
     inkscape:zoom="1"
     inkscape:cx="585"
     inkscape:cy="-118.5"
     inkscape:window-width="1920"
     inkscape:window-height="1009"
     inkscape:window-x="1912"
     inkscape:window-y="-8"
     inkscape:window-maximized="1"
     inkscape:current-layer="layer1"
     showguides="true">
    <inkscape:page
       x="0"
       y="0"
       width="373.66223"
       height="52.131008"
       id="page13"
       margin="0"
       bleed="0"
       inkscape:export-filename="open_rase.png"
       inkscape:export-xdpi="96"
       inkscape:export-ydpi="96" />
    <sodipodi:guide
       position="215.89999,49.439947"
       orientation="0,-1"
       id="guide13"
       inkscape:locked="false" />
    <sodipodi:guide
       position="204.98593,0.35973727"
       orientation="0,-1"
       id="guide14"
       inkscape:locked="false" />
    <sodipodi:guide
       position="192.15777,47.798707"
       orientation="1,0"
       id="guide15"
       inkscape:locked="false" />
    <sodipodi:guide
       position="240.63853,122.06807"
       orientation="0,-1"
       id="guide16"
       inkscape:locked="false" />
    <sodipodi:guide
       position="214.84165,72.987857"
       orientation="0,-1"
       id="guide17"
       inkscape:locked="false" />
    <sodipodi:guide
       position="185.55027,22.328428"
       orientation="1,0"
       id="guide18"
       inkscape:locked="false" />
  </sodipodi:namedview>
  <defs
     id="defs1" />
  <g
     inkscape:label="Layer 1"
     inkscape:groupmode="layer"
     id="layer1"
     transform="translate(178.13689,-110.41832)">
    <path
       id="text1-0"
       style="font-size:68.2067px;line-height:0.7;font-family:Bungee;-inkscape-font-specification:Bungee;letter-spacing:0px;word-spacing:-0.0115823px;fill:#006db6;fill-opacity:1;stroke-width:0.511;stroke-linecap:round;stroke-linejoin:round;stroke-dasharray:none;paint-order:stroke fill markers"
       d="m 16.478581,111.91875 c -1.705146,0 -2.455664,0.74999 -2.455664,2.45515 v 44.19833 c 0,1.70516 0.750518,2.45515 2.455664,2.45515 h 10.503752 c 1.705146,0 2.455664,-0.74999 2.455664,-2.45515 v -13.36869 h 9.548771 c 1.909766,0 2.591573,0.88698 2.591573,2.93316 v 10.43553 c 0,1.70516 0.750518,2.45515 2.455664,2.45515 h 10.571964 c 1.705157,0 2.455665,-0.74999 2.455665,-2.45515 v -14.46009 c 0,-5.7293 -3.274208,-9.34419 -8.253243,-9.88984 1.774086,-0.76032 2.812712,-2.09873 3.348632,-3.91294 l -12.691215,-1.06298 a 7.1106772,7.1106772 0 0 1 -6.833174,5.71438 7.1106772,7.1106772 0 0 1 -7.110677,-7.11068 7.1106772,7.1106772 0 0 1 7.110677,-7.11068 7.1106772,7.1106772 0 0 1 7.068302,6.51847 l 12.821956,1.07383 c 0.06327,-0.59808 0.104904,-1.2184 0.104904,-1.88515 v -3.13728 c 0,-6.75239 -3.205494,-11.39052 -13.43639,-11.39052 z m 59.271323,0 c -1.84157,0 -2.9327,0.68177 -3.47835,2.25051 l -5.87302,15.32413 11.51609,0.9648 a 7.1106772,7.1106772 0 0 1 6.79132,-5.50458 7.1106772,7.1106772 0 0 1 6.98045,5.83324 l 11.610656,-1.5136 -5.788786,-15.10399 c -0.54565,-1.56874 -1.6373,-2.25051 -3.41065,-2.25051 z m 51.632496,0 c -8.86676,0 -14.11851,4.22896 -14.11851,12.00444 v 4.05091 l 11.41377,-1.48776 a 7.1106772,7.1106772 0 0 1 -0.0196,-0.0992 7.1106772,7.1106772 0 0 1 7.11068,-7.11068 7.1106772,7.1106772 0 0 1 6.96237,5.66994 h 7.74939 c 1.70516,0 2.45567,-0.75052 2.45567,-2.45567 v -8.11681 c 0,-1.70516 -0.75051,-2.45515 -2.45567,-2.45515 z m 33.89871,0 c -1.70517,0 -2.45515,0.74999 -2.45515,2.45515 v 12.04319 l 11.73159,0.26045 a 7.1106772,7.1106772 0 0 1 6.94996,-6.30246 7.1106772,7.1106772 0 0 1 7.11068,7.11068 7.1106772,7.1106772 0 0 1 -7.11068,7.11068 7.1106772,7.1106772 0 0 1 -5.44308,-2.86701 l -13.23847,6.14639 v 20.69641 c 0,1.70516 0.74998,2.45515 2.45515,2.45515 h 31.6482 c 1.70517,0 2.45515,-0.74999 2.45515,-2.45515 v -7.98039 c 0,-1.70514 -0.74998,-2.45514 -2.45515,-2.45514 H 174.1041 v -5.8658 h 13.30048 c 0.029,0 0.0465,-0.009 0.0749,-0.01 h 7.89926 v -5.1e-4 h -5.46788 v -5.2e-4 h 2.10323 c 2.33086,0 3.35865,-1.02432 3.36465,-3.34811 V 122.3977 c 1.5e-4,-0.0166 0.006,-0.0266 0.006,-0.0434 v -7.98039 c 0,-1.70516 -0.74998,-2.45515 -2.45515,-2.45515 z m -2.45515,16.4977 v 7.25486 l 12.26902,-5.69578 a 7.1106772,7.1106772 0 0 1 -0.46095,-1.29708 z m -33.75763,0.0351 -11.80444,1.53841 v 1.09502 c 0,7.63908 4.16064,10.36742 10.57196,11.32231 l 4.34702,0.60823 a 7.1106772,7.1106772 0 0 1 5.83479,-3.06958 7.1106772,7.1106772 0 0 1 6.46885,4.23902 l 10.70891,-4.97127 c -0.8994,-5.64724 -4.83692,-7.83926 -10.44432,-8.67441 l -2.95228,-0.39636 a 7.1106772,7.1106772 0 0 1 -6.03012,3.35484 7.1106772,7.1106772 0 0 1 -6.70037,-5.04621 z m -21.06176,2.74557 -12.337226,1.60817 a 7.1106772,7.1106772 0 0 1 -0.1447,0.72606 l 14.331426,4.38422 c -0.29684,-1.88365 -0.90417,-4.08501 -1.8495,-6.71845 z m -38.309286,0.24598 c -1.35982,3.82734 -2.01952,6.76034 -2.01952,9.12244 v 18.00665 c 0,1.70516 0.75,2.45515 2.45515,2.45515 h 10.02626 c 1.70515,0 2.45567,-0.74999 2.45567,-2.45515 v -9.54928 h 12.07264 v 9.54928 c 0,1.70516 0.81823,2.45515 2.65979,2.45515 H 103.6469 c 1.70516,0 2.45515,-0.74999 2.45515,-2.45515 v -18.00665 c 0,-0.15438 -0.0304,-0.33566 -0.0357,-0.49454 l -15.212976,-4.65398 a 7.1106772,7.1106772 0 0 1 -6.14743,3.75791 7.1106772,7.1106772 0 0 1 -7.03472,-6.72879 z m 85.675386,9.89294 -10.42003,4.83743 a 7.1106772,7.1106772 0 0 1 0.1757,0.88315 7.1106772,7.1106772 0 0 1 -7.11068,7.11068 7.1106772,7.1106772 0 0 1 -7.02335,-6.03064 h -11.27528 c -1.70506,0 -2.45514,0.75 -2.45514,2.45514 v 7.98039 c 0,1.70516 0.75008,2.45515 2.45514,2.45515 h 21.55373 c 8.79856,0 14.11852,-4.22895 14.11852,-12.00443 v -7.16132 c 0,-0.1824 -0.0138,-0.34871 -0.0186,-0.52555 z" />
    <path
       style="font-size:68.3062px;line-height:0.7;font-family:Bungee;-inkscape-font-specification:Bungee;letter-spacing:0px;word-spacing:-0.0115992px;fill:#ffffff;stroke-width:0.373366;stroke-linecap:round;stroke-linejoin:round;paint-order:stroke fill markers"
       d="m -134.52704,148.1795 v -23.29241 c 0,-8.33336 -4.09838,-14.00277 -21.17492,-14.00277 -17.07655,0 -21.24323,5.66941 -21.24323,14.00277 v 23.29241 c 0,8.33336 4.16668,13.93446 21.24323,13.93446 17.07654,0 21.17492,-5.6011 21.17492,-13.93446 z m -26.91265,-2.45902 v -18.37437 c 0,-1.77596 0.81968,-3.14209 5.73773,-3.14209 4.98635,0 5.73772,1.36613 5.73772,3.14209 v 18.37437 c 0,1.84426 -0.75137,3.21039 -5.73772,3.21039 -4.91805,0 -5.73773,-1.36613 -5.73773,-3.21039 z m 48.63398,15.36889 c 1.70766,0 2.45903,-0.75137 2.45903,-2.45902 v -11.33883 h 7.85521 c 12.431726,0 16.120261,-5.39619 16.120261,-13.31971 v -8.74319 c 0,-7.92352 -3.688535,-13.31971 -16.120261,-13.31971 h -20.9017 c -1.70765,0 -2.45902,0.75137 -2.45902,2.45902 v 44.26242 c 0,1.70765 0.75137,2.45902 2.45902,2.45902 z m 2.32241,-36.4072 h 6.14756 c 2.66394,0 3.21039,1.57104 3.21039,3.347 v 3.62023 c 0,1.77596 -0.54645,3.347 -3.21039,3.347 h -6.14756 z m 65.368982,36.4072 c 1.707655,0 2.459023,-0.75137 2.459023,-2.45902 v -7.99183 c 0,-1.70765 -0.751368,-2.45902 -2.459023,-2.45902 h -18.852511 v -5.87433 h 13.319709 c 1.707655,0 2.459023,-0.75137 2.459023,-2.45903 v -7.30876 c 0,-1.70766 -0.751368,-2.45902 -2.459023,-2.45902 h -13.319709 v -5.25958 h 18.852511 c 1.707655,0 2.459023,-0.75137 2.459023,-2.45902 v -7.99183 c 0,-1.70765 -0.751368,-2.45902 -2.459023,-2.45902 h -31.694076 c -1.707655,0 -2.459023,0.75137 -2.459023,2.45902 v 44.26242 c 0,1.70765 0.751368,2.45902 2.459023,2.45902 z m 23.224064,0 c 1.707655,0 2.459023,-0.75137 2.459023,-2.45902 V 136.0893 l 11.6803602,14.13939 v 8.40166 c 0,1.70765 0.7513682,2.45902 2.4590231,2.45902 H 4.954082 c 1.707655,0 2.4590232,-0.75137 2.4590232,-2.45902 v -44.26242 c 0,-1.70765 -0.7513682,-2.45902 -2.4590232,-2.45902 H -5.2918477 c -1.7076549,0 -2.4590231,0.75137 -2.4590231,2.45902 v 14.54922 L -21.002273,113.75318 c -1.161206,-1.36613 -2.254105,-1.84427 -4.030066,-1.84427 h -7.103845 c -1.707655,0 -2.459023,0.75137 -2.459023,2.45902 v 44.26242 c 0,1.70765 0.751368,2.45902 2.459023,2.45902 z"
       id="text13"
       aria-label="OPEN" />
  </g>
</svg>
